<svg width="395" height="81" xmlns="http://www.w3.org/2000/svg">

 <g>
  <title>Layer 1</title>
  <g id="svg_9">
   <svg preserveAspectRatio="xMinYMin" x="0" y="0" width="74.59337" height="81.20367" viewBox="-0.003512635827064514 -0.0000019073486328125 212.2970428466797 231.11000061035156" id="svg_1" xmlns="http://www.w3.org/2000/svg">
    <path fill=" #ffffff" d="m203.2,102.69c6.01,-20.91 9.53,-44.58 9.05,-71.16c0,0 -31.58,-31.53 -106.11,-31.53s-106.1,31.53 -106.1,31.53c-2.53,140.21 106.11,199.58 106.11,199.58c0,0 63.15,-34.53 92.03,-113.08l-0.85,-0.88c-0.1,-0.1 -0.22,-0.22 -0.37,-0.36c-0.04,-0.04 -0.1,-0.09 -0.15,-0.14c-0.12,-0.11 -0.25,-0.23 -0.4,-0.37c-0.07,-0.07 -0.15,-0.14 -0.23,-0.21c-0.15,-0.14 -0.31,-0.28 -0.48,-0.43c-0.1,-0.09 -0.2,-0.17 -0.3,-0.27c-0.18,-0.16 -0.38,-0.33 -0.59,-0.5c-0.12,-0.1 -0.24,-0.2 -0.37,-0.31c-0.22,-0.19 -0.46,-0.38 -0.71,-0.58c-0.14,-0.11 -0.27,-0.22 -0.42,-0.33c-0.27,-0.22 -0.57,-0.44 -0.87,-0.67c-0.14,-0.11 -0.28,-0.22 -0.43,-0.33c-0.36,-0.27 -0.74,-0.55 -1.13,-0.84c-0.11,-0.08 -0.22,-0.16 -0.34,-0.25c-1.06,-0.76 -2.25,-1.57 -3.56,-2.42c-0.09,-0.06 -0.19,-0.12 -0.28,-0.18c-0.56,-0.36 -1.14,-0.72 -1.74,-1.09c-0.19,-0.12 -0.39,-0.24 -0.59,-0.35c-0.53,-0.32 -1.06,-0.63 -1.62,-0.96c-0.24,-0.14 -0.5,-0.28 -0.75,-0.42c-0.54,-0.31 -1.09,-0.61 -1.66,-0.92c-0.28,-0.15 -0.56,-0.3 -0.85,-0.45c-0.58,-0.31 -1.17,-0.61 -1.77,-0.92c-0.3,-0.15 -0.6,-0.3 -0.91,-0.46c-0.63,-0.31 -1.29,-0.63 -1.96,-0.94c-0.3,-0.14 -0.6,-0.28 -0.91,-0.43c-0.74,-0.34 -1.5,-0.68 -2.27,-1.02c-0.26,-0.11 -0.51,-0.23 -0.78,-0.34c-14.76,-6.34 -36.03,-12.05 -64.76,-12.05c-19.47,0 -35.5,2.63 -48.42,6.29c3.56,11.3 8.18,22.16 13.81,32.56c9.28,-2.25 20.73,-3.85 34.6,-3.85c21.25,0 36.84,3.74 47.6,7.85c-5.37,9.75 -11.64,19.09 -18.83,28.01c-10.15,12.59 -20.49,22.19 -28.77,28.93c-8.27,-6.74 -18.61,-16.34 -28.77,-28.93c-25.43,-31.54 -39.52,-68.39 -41.99,-109.77c2.25,-1.17 4.85,-2.4 7.81,-3.63c12.14,-5.05 32.91,-11.06 62.94,-11.06s50.81,6.02 62.94,11.06c2.96,1.23 5.56,2.46 7.81,3.63c-0.74,12.34 -2.52,24.28 -5.31,35.79c16.83,5.97 27.06,13.36 31.61,17.2l0.04,0z" id="svg_2"/>
   </svg>
   <svg id="svg_6" width="298.89001" height="61.91" viewBox="2.0199999809265137 18.950000762939453 298.8900146484375 61.90999984741211" y="12.25095" x="96.11691">
    <g id="svg_7" fill="#ffffff">
     <path id="svg_8" d="m17.48,29.77q3.79,0 6.66,1.49q2.88,1.5 4.53,3.89l0,0l0,-4.83l8.61,0l0,34.1q0,4.71 -1.89,8.41q-1.89,3.7 -5.68,5.87q-3.79,2.16 -9.17,2.16l0,0q-7.22,0 -11.83,-3.36q-4.61,-3.36 -5.23,-9.17l0,0l8.5,0q0.67,2.33 2.9,3.7q2.23,1.38 5.41,1.38l0,0q3.73,0 6.05,-2.23q2.33,-2.23 2.33,-6.76l0,0l0,-5.25q-1.65,2.38 -4.56,3.97q-2.9,1.59 -6.63,1.59l0,0q-4.28,0 -7.82,-2.2q-3.55,-2.2 -5.6,-6.21q-2.04,-4 -2.04,-9.19l0,0q0,-5.14 2.04,-9.11q2.05,-3.97 5.57,-6.11q3.51,-2.14 7.85,-2.14l0,0zm11.19,17.48q0,-3.12 -1.23,-5.35q-1.22,-2.23 -3.3,-3.42q-2.07,-1.2 -4.46,-1.2l0,0q-2.38,0 -4.4,1.17q-2.02,1.16 -3.27,3.39q-1.25,2.23 -1.25,5.29l0,0q0,3.05 1.25,5.34q1.25,2.3 3.3,3.52q2.05,1.22 4.37,1.22l0,0q2.39,0 4.46,-1.19q2.08,-1.19 3.3,-3.42q1.23,-2.24 1.23,-5.35l0,0zm14.79,-0.12q0,-5.14 2.05,-9.11q2.04,-3.97 5.56,-6.11q3.51,-2.14 7.85,-2.14l0,0q3.79,0 6.63,1.52q2.85,1.53 4.56,3.86l0,0l0,-4.83l8.62,0l0,33.86l-8.62,0l0,-4.95q-1.65,2.38 -4.56,3.94q-2.9,1.56 -6.69,1.56l0,0q-4.28,0 -7.79,-2.2q-3.52,-2.2 -5.56,-6.21q-2.05,-4 -2.05,-9.19l0,0zm26.65,0.12q0,-3.12 -1.23,-5.35q-1.22,-2.23 -3.3,-3.42q-2.07,-1.2 -4.46,-1.2l0,0q-2.38,0 -4.4,1.17q-2.02,1.16 -3.27,3.39q-1.25,2.23 -1.25,5.29l0,0q0,3.05 1.25,5.34q1.25,2.3 3.3,3.52q2.05,1.22 4.37,1.22l0,0q2.39,0 4.46,-1.19q2.08,-1.19 3.3,-3.42q1.23,-2.24 1.23,-5.35l0,0zm25.55,-11.68q1.65,-2.69 4.31,-4.21q2.65,-1.53 6.08,-1.53l0,0l0,8.98l-2.26,0q-4.04,0 -6.09,1.9q-2.04,1.89 -2.04,6.6l0,0l0,16.87l-8.56,0l0,-33.86l8.56,0l0,5.25zm13.93,11.56q0,-5.14 2.05,-9.11q2.05,-3.97 5.59,-6.11q3.55,-2.14 7.89,-2.14l0,0q3.3,0 6.29,1.43q3,1.44 4.77,3.82l0,0l0,-16.07l8.68,0l0,45.23l-8.68,0l0,-5.01q-1.59,2.5 -4.46,4.03q-2.87,1.53 -6.66,1.53l0,0q-4.28,0 -7.83,-2.2q-3.54,-2.2 -5.59,-6.21q-2.05,-4 -2.05,-9.19l0,0zm26.65,0.12q0,-3.12 -1.22,-5.35q-1.22,-2.23 -3.3,-3.42q-2.08,-1.2 -4.46,-1.2l0,0q-2.39,0 -4.4,1.17q-2.02,1.16 -3.27,3.39q-1.26,2.23 -1.26,5.29l0,0q0,3.05 1.26,5.34q1.25,2.3 3.3,3.52q2.04,1.22 4.37,1.22l0,0q2.38,0 4.46,-1.19q2.08,-1.19 3.3,-3.42q1.22,-2.24 1.22,-5.35l0,0zm25.55,-11.98q1.65,-2.45 4.55,-3.98q2.91,-1.52 6.64,-1.52l0,0q4.34,0 7.85,2.14q3.51,2.14 5.56,6.08q2.05,3.94 2.05,9.14l0,0q0,5.19 -2.05,9.19q-2.05,4.01 -5.56,6.21q-3.51,2.2 -7.85,2.2l0,0q-3.79,0 -6.64,-1.5q-2.84,-1.5 -4.55,-3.88l0,0l0,4.83l-8.56,0l0,-45.23l8.56,0l0,16.32zm17.91,11.86q0,-3.06 -1.25,-5.29q-1.26,-2.23 -3.3,-3.39q-2.05,-1.17 -4.44,-1.17l0,0q-2.32,0 -4.37,1.2q-2.04,1.19 -3.3,3.45q-1.25,2.26 -1.25,5.32l0,0q0,3.05 1.25,5.32q1.26,2.26 3.3,3.45q2.05,1.19 4.37,1.19l0,0q2.39,0 4.44,-1.22q2.04,-1.22 3.3,-3.49q1.25,-2.26 1.25,-5.37l0,0zm12.77,0q0,-5.14 2.05,-9.11q2.05,-3.97 5.56,-6.11q3.52,-2.14 7.86,-2.14l0,0q3.79,0 6.63,1.52q2.84,1.53 4.55,3.86l0,0l0,-4.83l8.62,0l0,33.86l-8.62,0l0,-4.95q-1.65,2.38 -4.55,3.94q-2.9,1.56 -6.69,1.56l0,0q-4.28,0 -7.8,-2.2q-3.51,-2.2 -5.56,-6.21q-2.05,-4 -2.05,-9.19l0,0zm26.65,0.12q0,-3.12 -1.22,-5.35q-1.22,-2.23 -3.3,-3.42q-2.08,-1.2 -4.46,-1.2l0,0q-2.39,0 -4.4,1.17q-2.02,1.16 -3.27,3.39q-1.26,2.23 -1.26,5.29l0,0q0,3.05 1.26,5.34q1.25,2.3 3.3,3.52q2.05,1.22 4.37,1.22l0,0q2.38,0 4.46,-1.19q2.08,-1.19 3.3,-3.42q1.22,-2.24 1.22,-5.35l0,0zm29.95,17.48q-4.15,0 -7.45,-1.5q-3.3,-1.5 -5.23,-4.06q-1.92,-2.57 -2.11,-5.69l0,0l8.62,0q0.24,1.96 1.93,3.24q1.68,1.29 4.18,1.29l0,0q2.45,0 3.82,-0.98q1.38,-0.98 1.38,-2.51l0,0q0,-1.65 -1.68,-2.47q-1.68,-0.83 -5.35,-1.81l0,0q-3.79,-0.91 -6.21,-1.89q-2.41,-0.98 -4.15,-3q-1.74,-2.01 -1.74,-5.44l0,0q0,-2.81 1.62,-5.13q1.62,-2.32 4.64,-3.67q3.03,-1.34 7.12,-1.34l0,0q6.05,0 9.66,3.02q3.61,3.03 3.97,8.16l0,0l-8.19,0q-0.18,-2.02 -1.68,-3.21q-1.5,-1.19 -4,-1.19l0,0q-2.32,0 -3.58,0.86q-1.25,0.85 -1.25,2.38l0,0q0,1.71 1.71,2.6q1.71,0.88 5.32,1.8l0,0q3.67,0.92 6.05,1.9q2.38,0.97 4.13,3.02q1.74,2.05 1.8,5.41l0,0q0,2.93 -1.62,5.26q-1.62,2.32 -4.65,3.63q-3.02,1.32 -7.06,1.32l0,0zm51.84,-18.22q0,1.84 -0.25,3.3l0,0l-24.75,0q0.3,3.67 2.56,5.75q2.26,2.08 5.57,2.08l0,0q4.76,0 6.78,-4.1l0,0l9.23,0q-1.47,4.89 -5.62,8.04q-4.16,3.15 -10.21,3.15l0,0q-4.89,0 -8.77,-2.17q-3.88,-2.17 -6.05,-6.14q-2.17,-3.98 -2.17,-9.17l0,0q0,-5.26 2.14,-9.23q2.14,-3.97 5.99,-6.11q3.85,-2.14 8.86,-2.14l0,0q4.83,0 8.65,2.07q3.82,2.08 5.93,5.9q2.11,3.82 2.11,8.77l0,0zm-24.94,-2.44l16.07,0q-0.06,-3.3 -2.38,-5.29q-2.32,-1.98 -5.69,-1.98l0,0q-3.17,0 -5.34,1.92q-2.17,1.93 -2.66,5.35l0,0z"/>
    </g>
   </svg>
  </g>
 </g>
</svg>