<svg xmlns="http://www.w3.org/2000/svg" viewBox="20 176.8981632683172 535.0069218647654 221.2036734633656"><rect height="100%" width="100%" x="20" y="176.8981632683172" fill="rgba(255, 255, 255, 0)"/> <svg xmlns="http://www.w3.org/2000/svg" id="Livello_2" viewBox="-0.003512635827064514 -0.0000019073486328125 212.2970428466797 231.11000061035156" height="81.2036734633656" width="74.59337253349904" y="246.8981632683172" x="90" preserveAspectRatio="xMinYMin" style="overflow: visible;"><path id="Livello_2-2" d="m203.2,102.69c6.01-20.91,9.53-44.58,9.05-71.16,0,0-31.58-31.53-106.11-31.53S.04,31.53.04,31.53c-2.53,140.21,106.11,199.58,106.11,199.58,0,0,63.15-34.53,92.03-113.08l-.85-.88c-.1-.1-.22-.22-.37-.36-.04-.04-.1-.09-.15-.14-.12-.11-.25-.23-.4-.37-.07-.07-.15-.14-.23-.21-.15-.14-.31-.28-.48-.43-.1-.09-.2-.17-.3-.27-.18-.16-.38-.33-.59-.5-.12-.1-.24-.2-.37-.31-.22-.19-.46-.38-.71-.58-.14-.11-.27-.22-.42-.33-.27-.22-.57-.44-.87-.67-.14-.11-.28-.22-.43-.33-.36-.27-.74-.55-1.13-.84-.11-.08-.22-.16-.34-.25-1.06-.76-2.25-1.57-3.56-2.42-.09-.06-.19-.12-.28-.18-.56-.36-1.14-.72-1.74-1.09-.19-.12-.39-.24-.59-.35-.53-.32-1.06-.63-1.62-.96-.24-.14-.5-.28-.75-.42-.54-.31-1.09-.61-1.66-.92-.28-.15-.56-.3-.85-.45-.58-.31-1.17-.61-1.77-.92-.3-.15-.6-.3-.91-.46-.63-.31-1.29-.63-1.96-.94-.3-.14-.6-.28-.91-.43-.74-.34-1.5-.68-2.27-1.02-.26-.11-.51-.23-.78-.34-14.76-6.34-36.03-12.05-64.76-12.05-19.47,0-35.5,2.63-48.42,6.29,3.56,11.3,8.18,22.16,13.81,32.56,9.28-2.25,20.73-3.85,34.6-3.85,21.25,0,36.84,3.74,47.6,7.85-5.37,9.75-11.64,19.09-18.83,28.01-10.15,12.59-20.49,22.19-28.77,28.93-8.27-6.74-18.61-16.34-28.77-28.93-25.43-31.54-39.52-68.39-41.99-109.77,2.25-1.17,4.85-2.4,7.81-3.63,12.14-5.05,32.91-11.06,62.94-11.06s50.81,6.02,62.94,11.06c2.96,1.23,5.56,2.46,7.81,3.63-.74,12.34-2.52,24.28-5.31,35.79,16.83,5.97,27.06,13.36,31.61,17.2Z" style="fill: #ffffff; fill-opacity: 1;"></path></svg> <svg x="186.11690721632792" y="259.1491163608173" viewBox="2.0199999809265137 18.950000762939453 298.8900146484375 61.90999984741211" height="61.90999984741211" width="298.8900146484375" style="overflow: visible;"><g fill="#ffffff" fill-opacity="1" style=""><path d="M17.48 29.77Q21.27 29.77 24.14 31.26Q27.02 32.76 28.67 35.15L28.67 35.15L28.67 30.32L37.28 30.32L37.28 64.42Q37.28 69.13 35.39 72.83Q33.50 76.53 29.71 78.70Q25.92 80.86 20.54 80.86L20.54 80.86Q13.32 80.86 8.71 77.50Q4.10 74.14 3.48 68.33L3.48 68.33L11.98 68.33Q12.65 70.66 14.88 72.03Q17.11 73.41 20.29 73.41L20.29 73.41Q24.02 73.41 26.34 71.18Q28.67 68.95 28.67 64.42L28.67 64.42L28.67 59.17Q27.02 61.55 24.11 63.14Q21.21 64.73 17.48 64.73L17.48 64.73Q13.20 64.73 9.66 62.53Q6.11 60.33 4.06 56.32Q2.02 52.32 2.02 47.13L2.02 47.13Q2.02 41.99 4.06 38.02Q6.11 34.05 9.63 31.91Q13.14 29.77 17.48 29.77L17.48 29.77ZM28.67 47.25Q28.67 44.13 27.44 41.90Q26.22 39.67 24.14 38.48Q22.07 37.28 19.68 37.28L19.68 37.28Q17.30 37.28 15.28 38.45Q13.26 39.61 12.01 41.84Q10.76 44.07 10.76 47.13L10.76 47.13Q10.76 50.18 12.01 52.47Q13.26 54.77 15.31 55.99Q17.36 57.21 19.68 57.21L19.68 57.21Q22.07 57.21 24.14 56.02Q26.22 54.83 27.44 52.60Q28.67 50.36 28.67 47.25L28.67 47.25ZM43.46 47.13Q43.46 41.99 45.51 38.02Q47.55 34.05 51.07 31.91Q54.58 29.77 58.92 29.77L58.92 29.77Q62.71 29.77 65.55 31.29Q68.40 32.82 70.11 35.15L70.11 35.15L70.11 30.32L78.73 30.32L78.73 64.18L70.11 64.18L70.11 59.23Q68.46 61.61 65.55 63.17Q62.65 64.73 58.86 64.73L58.86 64.73Q54.58 64.73 51.07 62.53Q47.55 60.33 45.51 56.32Q43.46 52.32 43.46 47.13L43.46 47.13ZM70.11 47.25Q70.11 44.13 68.88 41.90Q67.66 39.67 65.58 38.48Q63.51 37.28 61.12 37.28L61.12 37.28Q58.74 37.28 56.72 38.45Q54.70 39.61 53.45 41.84Q52.20 44.07 52.20 47.13L52.20 47.13Q52.20 50.18 53.45 52.47Q54.70 54.77 56.75 55.99Q58.80 57.21 61.12 57.21L61.12 57.21Q63.51 57.21 65.58 56.02Q67.66 54.83 68.88 52.60Q70.11 50.36 70.11 47.25L70.11 47.25ZM95.66 35.57Q97.31 32.88 99.97 31.36Q102.62 29.83 106.05 29.83L106.05 29.83L106.05 38.81L103.79 38.81Q99.75 38.81 97.70 40.71Q95.66 42.60 95.66 47.31L95.66 47.31L95.66 64.18L87.10 64.18L87.10 30.32L95.66 30.32L95.66 35.57ZM109.59 47.13Q109.59 41.99 111.64 38.02Q113.69 34.05 117.23 31.91Q120.78 29.77 125.12 29.77L125.12 29.77Q128.42 29.77 131.41 31.20Q134.41 32.64 136.18 35.02L136.18 35.02L136.18 18.95L144.86 18.95L144.86 64.18L136.18 64.18L136.18 59.17Q134.59 61.67 131.72 63.20Q128.85 64.73 125.06 64.73L125.06 64.73Q120.78 64.73 117.23 62.53Q113.69 60.33 111.64 56.32Q109.59 52.32 109.59 47.13L109.59 47.13ZM136.24 47.25Q136.24 44.13 135.02 41.90Q133.80 39.67 131.72 38.48Q129.64 37.28 127.26 37.28L127.26 37.28Q124.87 37.28 122.86 38.45Q120.84 39.61 119.59 41.84Q118.33 44.07 118.33 47.13L118.33 47.13Q118.33 50.18 119.59 52.47Q120.84 54.77 122.89 55.99Q124.93 57.21 127.26 57.21L127.26 57.21Q129.64 57.21 131.72 56.02Q133.80 54.83 135.02 52.60Q136.24 50.36 136.24 47.25L136.24 47.25ZM161.79 35.27Q163.44 32.82 166.34 31.29Q169.25 29.77 172.98 29.77L172.98 29.77Q177.32 29.77 180.83 31.91Q184.34 34.05 186.39 37.99Q188.44 41.93 188.44 47.13L188.44 47.13Q188.44 52.32 186.39 56.32Q184.34 60.33 180.83 62.53Q177.32 64.73 172.98 64.73L172.98 64.73Q169.19 64.73 166.34 63.23Q163.50 61.73 161.79 59.35L161.79 59.35L161.79 64.18L153.23 64.18L153.23 18.95L161.79 18.95L161.79 35.27ZM179.70 47.13Q179.70 44.07 178.45 41.84Q177.19 39.61 175.15 38.45Q173.10 37.28 170.71 37.28L170.71 37.28Q168.39 37.28 166.34 38.48Q164.30 39.67 163.04 41.93Q161.79 44.19 161.79 47.25L161.79 47.25Q161.79 50.30 163.04 52.57Q164.30 54.83 166.34 56.02Q168.39 57.21 170.71 57.21L170.71 57.21Q173.10 57.21 175.15 55.99Q177.19 54.77 178.45 52.50Q179.70 50.24 179.70 47.13L179.70 47.13ZM192.47 47.13Q192.47 41.99 194.52 38.02Q196.57 34.05 200.08 31.91Q203.60 29.77 207.94 29.77L207.94 29.77Q211.73 29.77 214.57 31.29Q217.41 32.82 219.12 35.15L219.12 35.15L219.12 30.32L227.74 30.32L227.74 64.18L219.12 64.18L219.12 59.23Q217.47 61.61 214.57 63.17Q211.67 64.73 207.88 64.73L207.88 64.73Q203.60 64.73 200.08 62.53Q196.57 60.33 194.52 56.32Q192.47 52.32 192.47 47.13L192.47 47.13ZM219.12 47.25Q219.12 44.13 217.90 41.90Q216.68 39.67 214.60 38.48Q212.52 37.28 210.14 37.28L210.14 37.28Q207.75 37.28 205.74 38.45Q203.72 39.61 202.47 41.84Q201.21 44.07 201.21 47.13L201.21 47.13Q201.21 50.18 202.47 52.47Q203.72 54.77 205.77 55.99Q207.82 57.21 210.14 57.21L210.14 57.21Q212.52 57.21 214.60 56.02Q216.68 54.83 217.90 52.60Q219.12 50.36 219.12 47.25L219.12 47.25ZM249.07 64.73Q244.92 64.73 241.62 63.23Q238.32 61.73 236.39 59.17Q234.47 56.60 234.28 53.48L234.28 53.48L242.90 53.48Q243.14 55.44 244.83 56.72Q246.51 58.01 249.01 58.01L249.01 58.01Q251.46 58.01 252.83 57.03Q254.21 56.05 254.21 54.52L254.21 54.52Q254.21 52.87 252.53 52.05Q250.85 51.22 247.18 50.24L247.18 50.24Q243.39 49.33 240.97 48.35Q238.56 47.37 236.82 45.35Q235.08 43.34 235.08 39.91L235.08 39.91Q235.08 37.10 236.70 34.78Q238.32 32.46 241.34 31.11Q244.37 29.77 248.46 29.77L248.46 29.77Q254.51 29.77 258.12 32.79Q261.73 35.82 262.09 40.95L262.09 40.95L253.90 40.95Q253.72 38.93 252.22 37.74Q250.72 36.55 248.22 36.55L248.22 36.55Q245.90 36.55 244.64 37.41Q243.39 38.26 243.39 39.79L243.39 39.79Q243.39 41.50 245.10 42.39Q246.81 43.27 250.42 44.19L250.42 44.19Q254.09 45.11 256.47 46.09Q258.85 47.06 260.60 49.11Q262.34 51.16 262.40 54.52L262.40 54.52Q262.40 57.45 260.78 59.78Q259.16 62.10 256.13 63.41Q253.11 64.73 249.07 64.73L249.07 64.73ZM300.91 46.51Q300.91 48.35 300.66 49.81L300.66 49.81L275.91 49.81Q276.21 53.48 278.47 55.56Q280.73 57.64 284.04 57.64L284.04 57.64Q288.80 57.64 290.82 53.54L290.82 53.54L300.05 53.54Q298.58 58.43 294.43 61.58Q290.27 64.73 284.22 64.73L284.22 64.73Q279.33 64.73 275.45 62.56Q271.57 60.39 269.40 56.42Q267.23 52.44 267.23 47.25L267.23 47.25Q267.23 41.99 269.37 38.02Q271.51 34.05 275.36 31.91Q279.21 29.77 284.22 29.77L284.22 29.77Q289.05 29.77 292.87 31.84Q296.69 33.92 298.80 37.74Q300.91 41.56 300.91 46.51L300.91 46.51ZM275.97 44.07L292.04 44.07Q291.98 40.77 289.66 38.78Q287.34 36.80 283.97 36.80L283.97 36.80Q280.80 36.80 278.63 38.72Q276.46 40.65 275.97 44.07L275.97 44.07Z" transform="translate(0, 0)"></path></g></svg></svg>